PathFileType	4	(X/Y/Z)	/Users/itak/Documents/Research/Walk-IL/dataset/trc/00359_00011.trc
DataRate	CameraRate	NumFrames	NumMarkers	Units	OrigDataRate	OrigDataStartFrame	OrigNumFrames
100.000000	100.000000	4	60	mm	100.000000	0	596
Frame#	Time	RPSI			LPSI			L3			STRN			T10			C7			CLAV			RBAK			LBAK			LSHO			LUPA			LAEL			LAOL			LWPS			LFRA			LHPS			LHTS			RSHO			RUPA			RAEL			RAOL			RWTS			RFRA			RIFD			RHTS			RBHD			LFHD			RFHD			LBHD			RHIP			RASI			LASI			LKNE			LTHI			LANK			LTIP			LTOE			LMT1			LMT5			LHEE			RKNE			RTHI			RANK			RTIP			RTOE			RMT1			RMT5			LWTS			LIFD			RWPS			LHIP			RHEE			RHPS			*53			*54			*55			*56			*57			*58			*59			
		X1	Y1	Z1	X2	Y2	Z2	X3	Y3	Z3	X4	Y4	Z4	X5	Y5	Z5	X6	Y6	Z6	X7	Y7	Z7	X8	Y8	Z8	X9	Y9	Z9	X10	Y10	Z10	X11	Y11	Z11	X12	Y12	Z12	X13	Y13	Z13	X14	Y14	Z14	X15	Y15	Z15	X16	Y16	Z16	X17	Y17	Z17	X18	Y18	Z18	X19	Y19	Z19	X20	Y20	Z20	X21	Y21	Z21	X22	Y22	Z22	X23	Y23	Z23	X24	Y24	Z24	X25	Y25	Z25	X26	Y26	Z26	X27	Y27	Z27	X28	Y28	Z28	X29	Y29	Z29	X30	Y30	Z30	X31	Y31	Z31	X32	Y32	Z32	X33	Y33	Z33	X34	Y34	Z34	X35	Y35	Z35	X36	Y36	Z36	X37	Y37	Z37	X38	Y38	Z38	X39	Y39	Z39	X40	Y40	Z40	X41	Y41	Z41	X42	Y42	Z42	X43	Y43	Z43	X44	Y44	Z44	X45	Y45	Z45	X46	Y46	Z46	X47	Y47	Z47	X48	Y48	Z48	X49	Y49	Z49	X50	Y50	Z50	X51	Y51	Z51	X52	Y52	Z52	X53	Y53	Z53	X54	Y54	Z54	X55	Y55	Z55	X56	Y56	Z56	X57	Y57	Z57	X58	Y58	Z58	X59	Y59	Z59	X60	Y60	Z60	

1	0	-1380.8544921875	983.4296264648438	788.5562133789062	-1377.919921875	980.546142578125	660.357666015625	-1381.171630859375	1030.587158203125	729.1646728515625	-1168.710693359375	1227.3876953125	716.6516723632812	-1400.733764648438	1149.409057617188	716.8692016601562	-1373.80078125	1399.684448242188	696.43603515625	-1215.889892578125	1351.81201171875	708.986328125	-1415.94189453125	1259.83203125	765.7216796875	-1379.083984375	1358.8955078125	594.510009765625	-1292.508666992188	1378.727172851562	539.8638305664062	-1301.2978515625	1254.621948242188	477.1748657226562	-1269.535522460938	1051.319091796875	476.0379028320312	-1336.283569335938	1035.672241210938	526.8519897460938	-1194.569946289062	802.035400390625	484.2870178222656	-1246.169189453125	947.9846801757812	476.0274047851562	-1192.028442382812	733.9585571289062	492.9524536132812	-1142.64990234375	744.8237915039062	531.0559692382812	-1322.538208007812	1393.081909179688	864.1859130859375	-1332.244995117188	1326.8916015625	927.3385620117188	-1307.634765625	1058.501098632812	960.6008911132812	-1347.700805664062	1049.4873046875	876.0032958984375	-1183.069458007812	839.3128051757812	912.4813232421875	-1277.958618164062	992.4765625	968.279541015625	-1156.333251953125	667.1421508789062	921.1687622070312	-1150.203857421875	739.9974365234375	926.9141235351562	-1352.361694335938	1601.74658203125	772.6170043945312	-1177.7421875	1636.725219726562	663.063232421875	-1193.914794921875	1640.114990234375	762.6765747070312	-1354.005859375	1587.5166015625	627.7589111328125	-1306.857055664062	932.5984497070312	902.0726318359375	-1198.700805664062	958.4010620117188	860.3442993164062	-1166.796142578125	950.328125	621.6454467773438	-1272.173583984375	468.0552062988281	559.3143310546875	-1257.509033203125	603.7578735351562	554.6553955078125	-1343.393676757812	50.80751419067383	554.6016235351562	-1310.251220703125	253.6539306640625	543.0809326171875	-1140.04296875	46.50189590454102	622.1688842773438	-1211.04833984375	32.9776496887207	659.6487426757812	-1215.878784179688	47.66744995117188	546.5541381835938	-1379.943237304688	45.55105209350586	620.1025390625	-1294.75244140625	469.8199462890625	906.6012573242188	-1239.982543945312	725.7025756835938	919.1701049804688	-1351.285522460938	52.41469955444336	909.488525390625	-1291.235717773438	352.4742736816406	907.51904296875	-1155.040893554688	49.77365875244141	869.62744140625	-1207.177490234375	44.22842407226562	824.9572143554688	-1250.84326171875	39.19916152954102	934.4609985351562	-1160.088500976562	821.0111083984375	542.02880859375	-1138.148315429688	660.1251220703125	545.7972412109375	-1220.079467773438	819.5507202148438	976.4183959960938	-1290.78173828125	921.4141845703125	558.8914794921875	-1370.054321289062	15.01965618133545	889.8767700195312	-1199.532104492188	737.6764526367188	973.5880737304688	nan	nan	nan	nan	nan	nan	nan	nan	nan	nan	nan	nan	nan	nan	nan	nan	nan	nan	nan	nan	nan	
2	0.01	-1380.965087890625	983.39892578125	788.4899291992188	-1378.031860351562	980.5401000976562	660.3198852539062	-1381.282836914062	1030.57373046875	729.09814453125	-1168.815185546875	1227.360717773438	716.579345703125	-1400.859497070312	1149.42529296875	716.8494262695312	-1373.886840820312	1399.677612304688	696.3870239257812	-1215.9365234375	1351.80517578125	708.9415283203125	-1416.072998046875	1259.848266601562	765.703125	-1379.252807617188	1359.0126953125	594.5358276367188	-1292.613525390625	1378.691772460938	539.8253784179688	-1301.390625	1254.573120117188	477.1534729003906	-1269.641235351562	1051.267944335938	476.0145874023438	-1336.34814453125	1035.643798828125	526.7630004882812	-1194.515869140625	802.0485229492188	484.4035034179688	-1246.201538085938	947.9678955078125	476.0459594726562	-1191.862060546875	733.912353515625	493.083740234375	-1142.633178710938	744.8025512695312	531.2075805664062	-1322.630126953125	1393.078247070312	864.1435546875	-1332.279663085938	1326.882202148438	927.3008422851562	-1307.617797851562	1058.511108398438	960.6069946289062	-1347.786376953125	1049.485229492188	876.0554809570312	-1183.171020507812	839.2010498046875	912.309326171875	-1277.929565429688	992.4960327148438	968.276123046875	-1156.311889648438	667.1710815429688	921.1510009765625	-1149.976806640625	740.1548461914062	926.8729858398438	-1352.414916992188	1601.750366210938	772.5501708984375	-1177.7939453125	1636.712280273438	663.01171875	-1193.98974609375	1640.111694335938	762.5828247070312	-1354.096801757812	1587.524658203125	627.7105712890625	-1306.834716796875	932.6962280273438	902.044677734375	-1198.676635742188	958.4757080078125	860.3093872070312	-1166.883911132812	950.29296875	621.6107788085938	-1272.109375	468.0780334472656	559.263916015625	-1257.480834960938	603.7312622070312	554.6234741210938	-1343.3984375	50.7949333190918	554.5918579101562	-1310.234497070312	253.6355895996094	543.0739135742188	-1140.040893554688	46.4990348815918	622.1764526367188	-1211.050659179688	32.97244262695312	659.6549072265625	-1215.8759765625	47.67343902587891	546.55810546875	-1379.943359375	45.55119323730469	620.1029663085938	-1294.756103515625	469.828369140625	906.5812377929688	-1239.959594726562	725.6929321289062	919.1226806640625	-1351.284790039062	52.4120979309082	909.4852905273438	-1291.22900390625	352.4808349609375	907.4947509765625	-1155.045654296875	49.77858734130859	869.6275024414062	-1207.181518554688	44.21611404418945	824.9462280273438	-1250.849365234375	39.21200180053711	934.4617309570312	-1160.09619140625	821.0505981445312	542.1082153320312	-1138.115234375	660.1455688476562	545.8997192382812	-1220.052978515625	819.5802001953125	976.4059448242188	-1290.912841796875	921.4308471679688	558.7642822265625	-1370.056762695312	15.01762294769287	889.8707275390625	-1199.388061523438	737.6629638671875	973.5510864257812	nan	nan	nan	nan	nan	nan	nan	nan	nan	nan	nan	nan	nan	nan	nan	nan	nan	nan	nan	nan	nan	
3	0.02	-1381.103149414062	983.36865234375	788.4052734375	-1378.158203125	980.5319213867188	660.2706298828125	-1381.42578125	1030.548828125	729.0065307617188	-1168.93896484375	1227.326782226562	716.491455078125	-1401.013427734375	1149.444702148438	716.8184814453125	-1373.99169921875	1399.671020507812	696.3262939453125	-1215.998413085938	1351.79296875	708.87646484375	-1416.235107421875	1259.871337890625	765.6783447265625	-1379.443115234375	1359.12646484375	594.5604858398438	-1292.740600585938	1378.65087890625	539.7809448242188	-1301.503295898438	1254.51171875	477.1307373046875	-1269.775268554688	1051.207275390625	475.9839172363281	-1336.433959960938	1035.613159179688	526.6639404296875	-1194.453491210938	802.0615844726562	484.5351867675781	-1246.257690429688	947.9459838867188	476.0678405761719	-1191.665771484375	733.79638671875	493.2901611328125	-1142.630126953125	744.775390625	531.383056640625	-1322.747924804688	1393.076049804688	864.0901489257812	-1332.325805664062	1326.873779296875	927.2539672851562	-1307.6025390625	1058.524291992188	960.6107177734375	-1347.895874023438	1049.482299804688	876.1122436523438	-1183.27685546875	839.0923461914062	912.1328125	-1277.898803710938	992.5232543945312	968.2711791992188	-1156.299560546875	667.1993408203125	921.1268310546875	-1149.702026367188	740.3566284179688	926.799072265625	-1352.478149414062	1601.7568359375	772.467041015625	-1177.8515625	1636.696411132812	662.950927734375	-1194.080200195312	1640.104858398438	762.4712524414062	-1354.20703125	1587.536254882812	627.6525268554688	-1306.853881835938	932.7990112304688	902.0001831054688	-1198.692138671875	958.5496826171875	860.2564697265625	-1166.98388671875	950.2498779296875	621.5648193359375	-1272.030639648438	468.1078796386719	559.2013549804688	-1257.4423828125	603.701416015625	554.5796508789062	-1343.403930664062	50.78304672241211	554.580810546875	-1310.2119140625	253.6109619140625	543.0660400390625	-1140.039306640625	46.49678802490234	622.1835327148438	-1211.055297851562	32.96575927734375	659.6613159179688	-1215.873168945312	47.67947006225586	546.5611572265625	-1379.94384765625	45.5511360168457	620.10302734375	-1294.762451171875	469.839111328125	906.5531616210938	-1239.916870117188	725.66162109375	919.04443359375	-1351.2841796875	52.40947723388672	909.4820556640625	-1291.225219726562	352.4897155761719	907.4646606445312	-1155.050903320312	49.78598403930664	869.6278076171875	-1207.187377929688	44.20617294311523	824.9368286132812	-1250.857299804688	39.22712707519531	934.462890625	-1160.124877929688	821.0947265625	542.19775390625	-1138.097412109375	660.1655883789062	546.0130615234375	-1220.022705078125	819.6168212890625	976.3905029296875	-1291.074096679688	921.4533081054688	558.6079711914062	-1370.0537109375	15.00783729553223	889.8641357421875	-1199.229614257812	737.6566162109375	973.5136108398438	nan	nan	nan	nan	nan	nan	nan	nan	nan	nan	nan	nan	nan	nan	nan	nan	nan	nan	nan	nan	nan	
4	0.03	-1381.261596679688	983.3429565429688	788.3052368164062	-1378.286865234375	980.521484375	660.2108154296875	-1381.594604492188	1030.509643554688	728.889892578125	-1169.074340820312	1227.287841796875	716.3927001953125	-1401.187133789062	1149.46630859375	716.7747802734375	-1374.109497070312	1399.665405273438	696.2561645507812	-1216.075561523438	1351.775146484375	708.7904663085938	-1416.420288085938	1259.901245117188	765.6480102539062	-1379.636352539062	1359.216064453125	594.5786743164062	-1292.88232421875	1378.60791015625	539.7338256835938	-1301.628540039062	1254.441040039062	477.1086730957031	-1269.932373046875	1051.142333984375	475.9476928710938	-1336.540405273438	1035.583618164062	526.5654907226562	-1194.388305664062	802.074951171875	484.6692810058594	-1246.34423828125	947.9194946289062	476.0936889648438	-1191.456176757812	733.5947265625	493.5767211914062	-1142.649536132812	744.7464599609375	531.5689697265625	-1322.887329101562	1393.076293945312	864.0280151367188	-1332.384033203125	1326.868408203125	927.2000732421875	-1307.593139648438	1058.5400390625	960.6091918945312	-1348.025756835938	1049.478759765625	876.1664428710938	-1183.38671875	838.9973754882812	911.9695434570312	-1277.871948242188	992.5576782226562	968.2645263671875	-1156.297241210938	667.228515625	921.0950927734375	-1149.404052734375	740.5908813476562	926.68408203125	-1352.547607421875	1601.766479492188	772.3716430664062	-1177.909790039062	1636.677856445312	662.885009765625	-1194.18115234375	1640.09326171875	762.3497314453125	-1354.330078125	1587.5517578125	627.58837890625	-1306.92333984375	932.8977661132812	901.9401245117188	-1198.756469726562	958.6151123046875	860.1868896484375	-1167.08642578125	950.2031860351562	621.5092163085938	-1271.94189453125	468.1431884765625	559.1304931640625	-1257.394287109375	603.67138671875	554.5242309570312	-1343.409301757812	50.77334976196289	554.5693359375	-1310.183837890625	253.5809783935547	543.05810546875	-1140.038452148438	46.49546051025391	622.1896362304688	-1211.061767578125	32.95840072631836	659.6671142578125	-1215.870483398438	47.68436813354492	546.5626831054688	-1379.944946289062	45.55078125	620.102294921875	-1294.77197265625	469.8519592285156	906.5184936523438	-1239.857299804688	725.6071166992188	918.9353637695312	-1351.283935546875	52.40752792358398	909.4797973632812	-1291.225341796875	352.5004272460938	907.43017578125	-1155.056762695312	49.79579544067383	869.6287231445312	-1207.195190429688	44.20159149169922	824.9308471679688	-1250.866455078125	39.24325180053711	934.4647827148438	-1160.184326171875	821.1387329101562	542.2892456054688	-1138.101806640625	660.1844482421875	546.1282958984375	-1219.991455078125	819.6588745117188	976.372802734375	-1291.255126953125	921.4816284179688	558.4319458007812	-1370.043579101562	14.98843288421631	889.8605346679688	-1199.074096679688	737.6640625	973.4815673828125	nan	nan	nan	nan	nan	nan	nan	nan	nan	nan	nan	nan	nan	nan	nan	nan	nan	nan	nan	nan	nan	
